<svg width="153" height="50" viewBox="0 0 153 50" fill="none" xmlns="http://www.w3.org/2000/svg">
<mask id="mask0_3_81" style="mask-type:luminance" maskUnits="userSpaceOnUse" x="0" y="0" width="51" height="50">
<path d="M51 0H0V50H51V0Z" fill="white"/>
</mask>
<g mask="url(#mask0_3_81)">
<path d="M41.6121 8.40386C41.6129 11.9971 40.7671 15.5554 39.123 18.8754C37.479 22.1954 35.0689 25.2121 32.0304 27.7532C28.9918 30.2943 25.3844 32.31 21.414 33.6853C17.4436 35.0605 13.1882 35.7684 8.89065 35.7684C8.33818 35.7684 7.78633 35.7591 7.23943 35.7296C7.05382 35.7249 6.86822 35.7151 6.68262 35.7053C5.137 34.2973 3.82595 32.7211 2.78498 31.0197L2.7788 31.015C2.7788 31.0104 2.7788 31.0104 2.77323 31.0005V30.9954C2.77099 30.9868 2.76702 30.9786 2.76147 30.9711H2.7559C2.74478 30.9617 2.73669 30.9501 2.7324 30.9374C2.30512 30.2296 1.92489 29.5025 1.59343 28.7596V28.7498C-0.108644 24.923 -0.459577 20.7679 0.582416 16.7791C1.62441 12.7902 4.01543 9.13582 7.47081 6.25091C9.01204 4.95441 10.7493 3.83187 12.6386 2.91181C12.6607 2.89754 12.6841 2.88458 12.7085 2.87302V2.86784H12.714C12.7172 2.8652 12.7213 2.86355 12.7258 2.86319L12.732 2.85802C14.8316 1.83951 17.0971 1.08152 19.4575 0.607813L19.4631 0.603158C20.7462 0.33956 22.0524 0.162423 23.3694 0.0734538H23.3984L23.7696 0.048626C24.345 0.0150023 24.9204 0 25.4957 0C31.2275 0.00664554 36.7909 1.62062 41.2959 4.58369C41.5072 5.84939 41.6128 7.1259 41.6121 8.40386Z" fill="url(#paint0_linear_3_81)"/>
<path d="M50.9996 21.3283C51.0042 24.1283 50.3466 26.9013 49.0646 29.488C47.7826 32.0747 45.9016 34.4239 43.5298 36.4005L28.5147 48.9551C27.7714 49.5788 26.7775 49.9495 25.7258 49.9952C24.6742 50.041 23.6397 49.7586 22.8229 49.2029H22.8174L22.8112 49.1982C22.6959 49.1237 22.5872 49.0425 22.4858 48.9551L11.5106 39.7784C20.1672 39.5713 28.53 37.1069 35.4291 32.73C42.3281 28.3531 47.4185 22.2826 49.9881 15.3676C49.9886 15.3714 49.9908 15.3749 49.9943 15.3774C50.6607 17.312 50.9991 19.3151 50.9996 21.3283Z" fill="#1F8AFF"/>
<g style="mix-blend-mode:screen" opacity="0.4">
<path d="M19.4584 0.607788C19.4231 0.622272 19.2784 0.685381 19.0253 0.802288C18.7407 0.933679 18.3225 1.10334 17.8109 1.35164C17.5547 1.47321 17.2702 1.60408 16.9621 1.74996C16.6657 1.91549 16.3434 2.07067 15.9969 2.25069C15.3164 2.6102 14.574 3.02663 13.7883 3.50977C13.3985 3.74772 13.0094 4.01516 12.5961 4.27742C12.207 4.564 11.7826 4.83661 11.3817 5.1475C10.5338 5.78059 9.72648 6.45068 8.96328 7.15507C8.15598 7.9008 7.40269 8.68625 6.70762 9.50723C6.33642 9.91072 6.03326 10.3628 5.68433 10.7854C5.38799 11.2184 5.08608 11.5975 4.77179 12.1304C4.18292 13.0345 3.67405 13.9735 3.24925 14.9398C3.02838 15.4116 2.85392 15.8973 2.65595 16.3737C2.49324 16.86 2.31877 17.3358 2.19071 17.8122C1.91192 18.7356 1.70036 19.6722 1.55719 20.617C1.52254 20.8404 1.48769 21.0646 1.45263 21.2894C1.42912 21.5129 1.40582 21.7316 1.38272 21.9454C1.32086 22.3778 1.32457 22.7958 1.28992 23.2044C1.25528 23.6131 1.2726 23.9965 1.25528 24.3705C1.26641 24.7496 1.2726 25.1044 1.27817 25.4402C1.32457 26.1126 1.34004 26.7086 1.40623 27.1896C1.45263 27.6806 1.51079 28.0794 1.54543 28.3468C1.56894 28.575 1.58627 28.7089 1.59245 28.7498C-0.109622 24.923 -0.460553 20.7678 0.58144 16.779C1.62343 12.7902 4.01445 9.13577 7.46982 6.25091C9.01111 4.95438 10.7484 3.83185 12.6376 2.91178C12.6598 2.89751 12.6831 2.88455 12.7075 2.87299V2.86781H12.713C12.7162 2.86516 12.7203 2.86352 12.7248 2.86316L12.731 2.85799C14.8312 1.83935 17.0974 1.08135 19.4584 0.607788Z" fill="white"/>
</g>
<g style="mix-blend-mode:multiply" opacity="0.3">
<path d="M41.6118 8.40381C41.6127 11.9971 40.7669 15.5554 39.1228 18.8754C37.4788 22.1953 35.0687 25.212 32.0301 27.7531C28.9916 30.2942 25.3841 32.31 21.4138 33.6852C17.4434 35.0605 13.188 35.7683 8.89043 35.7683C8.33795 35.7683 7.7861 35.759 7.2392 35.7295L8.99498 35.5449C9.58767 35.4476 10.181 35.37 10.7681 35.2826C11.3552 35.1853 11.9436 35.1367 12.5177 35.0053L14.2264 34.6313C15.356 34.386 16.4681 34.0874 17.5574 33.7369C17.8308 33.6495 18.1098 33.5911 18.3771 33.4892L19.1678 33.1876C19.6912 32.9884 20.2195 32.7893 20.7429 32.5994C21.2663 32.4096 21.7544 32.1375 22.2605 31.914C22.7604 31.6807 23.2658 31.4624 23.7601 31.224L25.1788 30.417C25.6618 30.1677 26.1257 29.8934 26.5677 29.5955C27.0094 29.2945 27.4456 28.9929 27.8935 28.7011C28.1143 28.5506 28.3408 28.4099 28.5561 28.2542L29.1661 27.7586C29.5676 27.4281 29.9802 27.1022 30.3929 26.7815C30.8056 26.4608 31.1483 26.0816 31.5319 25.7366L32.6455 24.672L33.6459 23.5298C34.3177 22.7727 34.9374 21.9841 35.5019 21.1679C35.6417 20.9682 35.8044 20.7742 35.9349 20.5647L36.3012 19.9279L37.0628 18.6642C37.33 18.2462 37.4866 17.7895 37.7019 17.357L38.3298 16.0348L38.8006 14.6739L39.045 13.9884C39.1353 13.7668 39.2034 13.5393 39.2485 13.3082L39.574 11.9472L39.7484 11.267C39.8103 11.0384 39.8177 10.7709 39.8585 10.5283L40.0441 9.02817L40.1369 8.34277L40.1833 7.62374C40.2242 6.75831 40.2186 5.89341 40.1716 5.02332C39.6952 4.66846 39.2009 4.31826 38.6954 3.98874C38.0384 3.56147 37.3585 3.14815 36.6489 2.76898C35.9455 2.37997 35.2191 2.01529 34.4631 1.68009C34.0795 1.51973 33.7022 1.34954 33.3124 1.19436L32.1728 0.752075C35.4952 1.49436 38.5997 2.79957 41.2938 4.58672C41.5056 5.85135 41.6118 7.12683 41.6118 8.40381Z" fill="black"/>
</g>
<g style="mix-blend-mode:screen" opacity="0.4">
<path d="M42.4434 27.0831C42.1007 27.6469 41.7344 28.2056 41.3391 28.755C40.9265 29.2847 40.4959 29.8144 40.0486 30.3348C39.5778 30.8303 39.1008 31.3357 38.5953 31.8168C38.0719 32.2886 37.5485 32.7598 37.0022 33.2135C36.4324 33.6413 35.8806 34.0929 35.2873 34.5015C34.6828 34.905 34.084 35.3183 33.4566 35.6913C32.8169 36.056 32.1834 36.43 31.5208 36.7657C30.852 37.0911 30.195 37.4382 29.5033 37.7278C28.8117 38.0175 28.12 38.3207 27.4048 38.5736C26.6841 38.8116 25.9751 39.0909 25.2426 39.2978C24.5002 39.497 23.772 39.7204 23.0222 39.8958C22.2717 40.051 21.5219 40.231 20.7665 40.3614C19.9993 40.4731 19.2378 40.6045 18.4774 40.6966C17.7041 40.7643 16.9369 40.8424 16.1698 40.8957C15.5183 40.9107 14.8706 40.9345 14.2222 40.9443C14.4313 41.1828 14.6466 41.4208 14.8557 41.6592C15.2511 42.1108 15.6291 42.5728 16.0071 43.0394C16.3906 43.4961 16.7569 43.9705 17.1114 44.4588L11.5131 39.7779C17.4565 39.6431 23.2956 38.4395 28.6329 36.2489C33.9701 34.0583 38.6805 30.9321 42.4434 27.0831Z" fill="white"/>
</g>
<g style="mix-blend-mode:multiply" opacity="0.3">
<path d="M50.9997 21.3282C51.0043 24.1282 50.3467 26.9013 49.0648 29.488C47.7828 32.0747 45.9018 34.4239 43.5299 36.4005L28.5148 48.955C27.7715 49.5787 26.7777 49.9494 25.726 49.9952C24.6744 50.041 23.6398 49.7586 22.8231 49.2028C22.8404 49.208 22.8812 49.2271 22.9567 49.2545C23.0919 49.3128 23.2319 49.3631 23.3755 49.4051C23.8935 49.5677 24.444 49.6451 24.9971 49.6332C25.7844 49.6073 26.5432 49.38 27.1711 48.9819C27.2527 48.924 27.3344 48.8655 27.4185 48.8071C27.4804 48.7486 27.5528 48.6907 27.6165 48.6322L27.7557 48.5009L27.8603 48.3974L27.8782 48.3829L27.8665 48.3876L27.8838 48.3731C27.9654 48.2857 28.0465 48.1931 28.1312 48.101C28.5024 47.7218 28.8928 47.3183 29.2937 46.9004C30.9332 45.2331 32.8925 43.328 35.0548 41.3447C36.1362 40.3531 37.2634 39.3376 38.4321 38.3217C39.589 37.3011 40.7979 36.2851 41.9956 35.2697C43.116 34.3449 44.1372 33.3398 45.0475 32.2658C45.9267 31.223 46.7004 30.1208 47.3607 28.9707C47.9799 27.8809 48.4988 26.7532 48.913 25.5974C49.2864 24.5516 49.5778 23.4865 49.7853 22.4089C49.8373 22.1502 49.8663 21.8838 49.909 21.6329C49.9263 21.5119 49.9499 21.3903 49.9672 21.2734C49.9845 21.1565 49.9962 21.0355 50.0136 20.9186C50.0717 20.4473 50.1008 19.9952 50.1243 19.5674C50.1645 18.717 50.1707 17.9638 50.1416 17.3431C50.1008 16.7254 50.0798 16.2252 50.0371 15.8895C49.9944 15.5538 49.9845 15.3722 49.9845 15.3722C49.9851 15.376 49.9873 15.3795 49.9907 15.382C50.6579 17.3149 50.9976 19.3165 50.9997 21.3282Z" fill="black"/>
</g>
<g style="mix-blend-mode:screen" opacity="0.16">
<path d="M37.9301 6.53487C10.8757 8.49798 8.49135 31.6751 8.39793 32.7153V32.751C8.3472 32.6993 8.29709 32.6476 8.25378 32.5958C8.19191 32.5353 8.15294 32.4872 8.12386 32.4572C8.11705 32.451 8.10221 32.4391 8.10221 32.4272C4.77514 28.7864 3.20294 24.2343 3.69645 19.671C4.18995 15.1077 6.71323 10.8653 10.7674 7.78257C11.2716 7.39719 11.7975 7.02992 12.345 6.68644C12.7626 6.42159 16.1628 4.74712 16.6139 4.57848C17.3699 4.29905 18.1443 4.05571 18.9332 3.84962C24.1937 2.49138 29.8704 2.81773 34.859 4.76522C35.6466 5.07352 37.8577 5.76981 37.9301 6.53487Z" fill="white"/>
</g>
</g>
<path d="M75.4148 21.1193C75.2727 20.6591 75.0767 20.2472 74.8267 19.8835C74.5824 19.5142 74.2869 19.1989 73.9403 18.9375C73.5994 18.6761 73.2074 18.4801 72.7642 18.3494C72.321 18.2131 71.8381 18.1449 71.3153 18.1449C70.3778 18.1449 69.5426 18.3807 68.8097 18.8523C68.0767 19.3239 67.5 20.017 67.0795 20.9318C66.6648 21.8409 66.4574 22.9489 66.4574 24.2557C66.4574 25.5739 66.6648 26.6903 67.0795 27.6051C67.4943 28.5199 68.071 29.2159 68.8097 29.6932C69.5483 30.1648 70.4063 30.4006 71.3835 30.4006C72.2699 30.4006 73.0369 30.2301 73.6847 29.8892C74.3381 29.5483 74.8409 29.0653 75.1932 28.4403C75.5455 27.8097 75.7216 27.071 75.7216 26.2244L76.4375 26.3352H71.6989V23.8636H78.7812V25.9602C78.7812 27.4545 78.4631 28.7472 77.8267 29.8381C77.1903 30.929 76.3153 31.7699 75.2017 32.3608C74.0881 32.946 72.8097 33.2386 71.3665 33.2386C69.7585 33.2386 68.3466 32.8778 67.1307 32.1562C65.9205 31.429 64.9744 30.3977 64.2926 29.0625C63.6165 27.7216 63.2784 26.1307 63.2784 24.2898C63.2784 22.8807 63.4773 21.6222 63.875 20.5142C64.2784 19.4062 64.8409 18.4659 65.5625 17.6932C66.2841 16.9148 67.1307 16.3239 68.1023 15.9205C69.0739 15.5114 70.1307 15.3068 71.2727 15.3068C72.2386 15.3068 73.1392 15.4489 73.9744 15.733C74.8097 16.0114 75.5511 16.4091 76.1989 16.9261C76.8523 17.4432 77.3892 18.0568 77.8097 18.767C78.2301 19.4773 78.5057 20.2614 78.6364 21.1193H75.4148ZM81.8388 33V15.5455H93.1911V18.196H85.0007V22.9347H92.603V25.5852H85.0007V30.3494H93.2592V33H81.8388ZM101.138 33.2301C100.11 33.2301 99.1896 32.9659 98.3771 32.4375C97.5646 31.9091 96.9226 31.142 96.451 30.1364C95.9794 29.1307 95.7436 27.9091 95.7436 26.4716C95.7436 25.017 95.9822 23.7898 96.4595 22.7898C96.9425 21.7841 97.593 21.0256 98.4112 20.5142C99.2294 19.9972 100.141 19.7386 101.147 19.7386C101.914 19.7386 102.545 19.8693 103.039 20.1307C103.533 20.3864 103.925 20.696 104.215 21.0597C104.505 21.4176 104.729 21.7557 104.888 22.0739H105.016V15.5455H108.11V33H105.076V30.9375H104.888C104.729 31.2557 104.499 31.5937 104.198 31.9517C103.897 32.304 103.499 32.6051 103.005 32.8551C102.511 33.1051 101.888 33.2301 101.138 33.2301ZM101.999 30.6989C102.653 30.6989 103.21 30.5227 103.67 30.1705C104.13 29.8125 104.479 29.3153 104.718 28.679C104.957 28.0426 105.076 27.3011 105.076 26.4545C105.076 25.608 104.957 24.8722 104.718 24.2472C104.485 23.6222 104.138 23.1364 103.678 22.7898C103.224 22.4432 102.664 22.2699 101.999 22.2699C101.312 22.2699 100.738 22.4489 100.278 22.8068C99.8175 23.1648 99.4709 23.6591 99.2379 24.2898C99.005 24.9205 98.8885 25.642 98.8885 26.4545C98.8885 27.2727 99.005 28.0028 99.2379 28.6449C99.4766 29.2812 99.826 29.7841 100.286 30.1534C100.752 30.517 101.323 30.6989 101.999 30.6989ZM111.398 33V19.9091H114.483V33H111.398ZM112.949 18.0511C112.46 18.0511 112.04 17.8892 111.688 17.5653C111.335 17.2358 111.159 16.8409 111.159 16.3807C111.159 15.9148 111.335 15.5199 111.688 15.196C112.04 14.8665 112.46 14.7017 112.949 14.7017C113.443 14.7017 113.864 14.8665 114.21 15.196C114.563 15.5199 114.739 15.9148 114.739 16.3807C114.739 16.8409 114.563 17.2358 114.21 17.5653C113.864 17.8892 113.443 18.0511 112.949 18.0511Z" fill="#FCB93C"/>
<path d="M120.468 28.892L120.46 25.1676H120.954L125.658 19.9091H129.263L123.477 26.3523H122.837L120.468 28.892ZM117.656 33V15.5455H120.741V33H117.656ZM125.871 33L121.61 27.0426L123.69 24.8693L129.562 33H125.871ZM137.857 19.9091V22.2955H130.331V19.9091H137.857ZM132.189 16.7727H135.274V29.0625C135.274 29.4773 135.337 29.7955 135.462 30.017C135.592 30.233 135.763 30.3807 135.973 30.4602C136.183 30.5398 136.416 30.5795 136.672 30.5795C136.865 30.5795 137.041 30.5653 137.2 30.5369C137.365 30.5085 137.49 30.483 137.575 30.4602L138.095 32.8722C137.93 32.929 137.695 32.9915 137.388 33.0597C137.087 33.1278 136.717 33.1676 136.28 33.179C135.507 33.2017 134.811 33.0852 134.192 32.8295C133.572 32.5682 133.081 32.1648 132.717 31.6193C132.359 31.0739 132.183 30.392 132.189 29.5739V16.7727ZM144.204 33.2642C143.374 33.2642 142.627 33.1165 141.962 32.821C141.303 32.5199 140.781 32.0767 140.394 31.4915C140.013 30.9062 139.823 30.1847 139.823 29.3267C139.823 28.5881 139.96 27.9773 140.232 27.4943C140.505 27.0114 140.877 26.625 141.349 26.3352C141.82 26.0455 142.352 25.8267 142.942 25.679C143.539 25.5256 144.156 25.4148 144.792 25.3466C145.559 25.267 146.181 25.196 146.658 25.1335C147.136 25.0653 147.482 24.9631 147.698 24.8267C147.92 24.6847 148.031 24.4659 148.031 24.1705V24.1193C148.031 23.4773 147.84 22.9801 147.46 22.6278C147.079 22.2756 146.531 22.0994 145.815 22.0994C145.059 22.0994 144.46 22.2642 144.016 22.5938C143.579 22.9233 143.283 23.3125 143.13 23.7614L140.249 23.3523C140.477 22.5568 140.852 21.892 141.374 21.358C141.897 20.8182 142.536 20.4148 143.292 20.1477C144.048 19.875 144.883 19.7386 145.798 19.7386C146.428 19.7386 147.056 19.8125 147.681 19.9602C148.306 20.108 148.877 20.3523 149.394 20.6932C149.911 21.0284 150.326 21.4858 150.638 22.0653C150.957 22.6449 151.116 23.3693 151.116 24.2386V33H148.15V31.2017H148.048C147.86 31.5653 147.596 31.9062 147.255 32.2244C146.92 32.5369 146.496 32.7898 145.985 32.983C145.479 33.1705 144.886 33.2642 144.204 33.2642ZM145.005 30.9972C145.624 30.9972 146.161 30.875 146.616 30.6307C147.07 30.3807 147.42 30.0511 147.664 29.642C147.914 29.233 148.039 28.7869 148.039 28.304V26.7614C147.942 26.8409 147.778 26.9148 147.545 26.983C147.317 27.0511 147.062 27.1108 146.778 27.1619C146.494 27.2131 146.212 27.2585 145.934 27.2983C145.656 27.3381 145.414 27.3722 145.21 27.4006C144.749 27.4631 144.337 27.5653 143.974 27.7074C143.61 27.8494 143.323 28.0483 143.113 28.304C142.903 28.554 142.798 28.8778 142.798 29.2756C142.798 29.8438 143.005 30.2727 143.42 30.5625C143.835 30.8523 144.363 30.9972 145.005 30.9972Z" fill="#1F8AFF"/>
<defs>
<linearGradient id="paint0_linear_3_81" x1="7.98597" y1="8.65593" x2="29.4574" y2="29.5376" gradientUnits="userSpaceOnUse">
<stop stop-color="#FBBB00"/>
<stop offset="1" stop-color="#FC8D43"/>
</linearGradient>
</defs>
</svg>
